HIERARCHY
ROOT Hips
{
	OFFSET 0.000000 8.830580 0.000000
	CHANNELS 6 Xposition Yposition Zposition Zrotation Yrotation Xrotation 
	JOINT Spine
	{
		OFFSET 0.000000 0.010000 0.000000
		CHANNELS 3 Zrotation Yrotation Xrotation
		JOINT Spine1
		{
			OFFSET 0.000000 2.459130 0.000000
			CHANNELS 3 Zrotation Yrotation Xrotation
			JOINT Neck
			{
				OFFSET 0.000000 2.484630 0.000000
				CHANNELS 3 Zrotation Yrotation Xrotation
				JOINT Head_virtual
				{
					OFFSET 0.000000 0.000000 0.000000
					CHANNELS 3 Zrotation Yrotation Xrotation
					JOINT Head
					{
						OFFSET 0.000000 0.927525 0.000000
						CHANNELS 3 Zrotation Yrotation Xrotation
						End Site
						{
							OFFSET 0.000000 0.000000 0.000000
						}
					}
				}
				JOINT LeftUpArm_virtual
				{
					OFFSET 0.000000 0.000000 0.000000
					CHANNELS 3 Zrotation Yrotation Xrotation
					JOINT LeftUpArm
					{
						OFFSET 1.248820 0.000000 0.000000
						CHANNELS 3 Zrotation Yrotation Xrotation
						JOINT LeftForeArm
						{
							OFFSET 2.597580 0.000000 0.000000
							CHANNELS 3 Zrotation Yrotation Xrotation
							JOINT LeftHand
							{
								OFFSET 2.455420 0.000000 0.000000
								CHANNELS 3 Zrotation Yrotation Xrotation
								End Site
								{
									OFFSET 0.000000 0.000000 0.000000
								}
							}
						}
					}
				}
				JOINT RightUpArm_virtual
				{
					OFFSET -0.000000 -0.000000 -0.000000
					CHANNELS 3 Zrotation Yrotation Xrotation
					JOINT RightUpArm
					{
						OFFSET -1.248820 -0.000000 -0.000000
						CHANNELS 3 Zrotation Yrotation Xrotation
						JOINT RightForeArm
						{
							OFFSET -2.597580 -0.000000 -0.000000
							CHANNELS 3 Zrotation Yrotation Xrotation
							JOINT RightHand
							{
								OFFSET -2.455420 -0.000000 -0.000000
								CHANNELS 3 Zrotation Yrotation Xrotation
								End Site
								{
									OFFSET 0.000000 0.000000 0.000000
								}
							}
						}
					}
				}
			}
		}
	}
	JOINT LeftUpLeg
	{
		OFFSET 1.271939 0.000000 0.000000
		CHANNELS 3 Zrotation Yrotation Xrotation
		JOINT LeftLowLeg
		{
			OFFSET 0.000000 -4.342910 0.000000
			CHANNELS 3 Zrotation Yrotation Xrotation
			JOINT LeftFoot
			{
				OFFSET 0.000000 -4.487670 0.000000
				CHANNELS 3 Zrotation Yrotation Xrotation
				JOINT LeftToeBase
				{
					OFFSET 0.000000 0.000000 1.515070
					CHANNELS 3 Zrotation Yrotation Xrotation
					End Site
					{
						OFFSET 0.000000 0.000000 0.000000
					}
				}
			}
		}
	}
	JOINT RightUpLeg
	{
		OFFSET -1.271939 0.000000 0.000000
		CHANNELS 3 Zrotation Yrotation Xrotation
		JOINT RightLowLeg
		{
			OFFSET 0.000000 -4.342910 0.000000
			CHANNELS 3 Zrotation Yrotation Xrotation
			JOINT RightFoot
			{
				OFFSET 0.000000 -4.487670 0.000000
				CHANNELS 3 Zrotation Yrotation Xrotation
				JOINT RightToeBase
				{
					OFFSET 0.000000 0.000000 1.515070
					CHANNELS 3 Zrotation Yrotation Xrotation
					End Site
					{
						OFFSET 0.000000 0.000000 0.000000
					}
				}
			}
		}
	}
}
MOTION
Frames: 7
Frame Time: 0.041667
-16.095451 8.964191 40.393515 -176.029802 1.379318 -160.692406 5.994127 0.911086 -30.477163 -4.069970 3.052518 5.540886 0.000000 0.000000 0.000000 11.963748 6.915198 3.361961 -10.518279 -3.361080 -70.080203 -29.029900 0.488919 7.771540 -41.713001 -4.443700 20.365499 0.000000 -17.519600 0.000000 6.173670 13.062600 23.271000 32.178398 -3.539360 4.443000 45.317200 1.126070 17.734985 0.000000 10.224200 0.000000 -0.480370 -7.179800 7.524230 6.545304 -24.406965 -15.860159 0.000000 0.000000 4.794100 -0.567952 22.691667 -4.736147 0.000000 0.000000 -10.680120 0.545433 31.763839 -16.719507 0.000000 0.000000 4.434870 1.613951 -28.978573 3.058522 0.000000 0.000000 -18.140000 
-16.095503 8.964254 40.392865 -176.018602 1.363269 -160.688433 5.969064 0.889500 -30.494566 -4.020442 3.082839 5.584197 0.000000 0.000000 0.000000 11.942594 6.938365 3.364216 -10.477620 -3.376076 -70.105682 -29.024300 0.499710 7.747880 -41.767200 -4.506180 19.955601 0.000000 -17.067699 0.000000 6.207060 13.073300 23.455601 32.186798 -3.518610 4.443770 45.316101 1.130890 17.688995 0.000000 10.161900 0.000000 -0.773313 -7.098000 7.267190 6.571649 -24.452484 -15.873114 0.000000 0.000000 4.805470 -0.576469 22.722509 -4.749149 0.000000 0.000000 -10.670440 0.564598 31.747762 -16.714971 0.000000 0.000000 4.432580 1.594563 -28.983768 3.071713 0.000000 0.000000 -18.137590 
-16.095315 8.964286 40.391685 -176.011293 1.318936 -160.685684 5.943756 0.845585 -30.523979 -3.968123 3.099537 5.637103 0.000000 0.000000 0.000000 11.948521 6.928148 3.345047 -10.471650 -3.373428 -70.104841 -29.017799 0.506985 7.709040 -41.876400 -4.550050 19.514400 0.000000 -16.606300 0.000000 6.355610 13.056000 23.727400 32.191002 -3.499290 4.460360 45.306499 1.134030 17.613007 0.000000 10.213100 0.000000 -0.923638 -7.222830 7.181520 6.601424 -24.504114 -15.884558 0.000000 0.000000 4.812910 -0.577585 22.734182 -4.755846 0.000000 0.000000 -10.693100 0.609780 31.672224 -16.678004 0.000000 0.000000 4.399200 1.533338 -28.971062 3.107353 0.000000 0.000000 -18.132480 
-16.095556 8.964380 40.391216 -176.008053 1.307613 -160.690893 5.919360 0.814311 -30.526712 -3.910136 3.120727 5.681102 0.000000 0.000000 0.000000 11.932804 6.936148 3.325966 -10.444959 -3.384616 -70.122401 -29.020500 0.507240 7.661230 -41.998199 -4.554060 19.258600 0.000000 -16.229000 0.000000 6.578510 13.137400 23.732100 32.214298 -3.494770 4.455480 45.263599 1.146120 17.820007 0.000000 10.286500 0.000000 -1.118650 -7.351020 6.958780 6.605216 -24.518636 -15.872830 0.000000 0.000000 4.801430 -0.582394 22.732900 -4.752004 0.000000 0.000000 -10.687560 0.628883 31.645767 -16.655638 0.000000 0.000000 4.383430 1.505302 -28.971870 3.128646 0.000000 0.000000 -18.134030 
-16.095934 8.964381 40.391737 -176.005047 1.304933 -160.686867 5.904843 0.796062 -30.498758 -3.880030 3.125998 5.678056 0.000000 0.000000 0.000000 11.931708 6.942330 3.307031 -10.416908 -3.381667 -70.137647 -29.008900 0.503177 7.621950 -42.173199 -4.541070 18.930799 0.000000 -15.876900 0.000000 6.803180 13.177400 23.833099 32.218101 -3.489290 4.458560 45.263699 1.168650 17.830994 0.000000 10.326000 0.000000 -1.160970 -7.381330 6.858060 6.610390 -24.510545 -15.880966 0.000000 0.000000 4.802170 -0.594259 22.710895 -4.757312 0.000000 0.000000 -10.682690 0.631519 31.629408 -16.660589 0.000000 0.000000 4.382050 1.505839 -28.958524 3.131100 0.000000 0.000000 -18.135610 
-16.096523 8.964434 40.392108 -175.988566 1.320821 -160.678319 5.905290 0.795101 -30.470846 -3.844221 3.123797 5.667299 0.000000 0.000000 0.000000 11.930639 6.938986 3.298146 -10.406110 -3.391001 -70.162023 -29.009899 0.504439 7.634300 -42.352299 -4.526730 18.664801 0.000000 -15.611000 0.000000 6.906350 13.166900 23.820700 32.202000 -3.490800 4.461890 45.287300 1.194880 17.864014 0.000000 10.339800 0.000000 -1.159740 -7.236290 6.844810 6.628574 -24.513074 -15.882843 0.000000 0.000000 4.787190 -0.596946 22.727424 -4.761685 0.000000 0.000000 -10.685400 0.639264 31.614442 -16.677087 0.000000 0.000000 4.392820 1.514104 -28.917875 3.138899 0.000000 0.000000 -18.147050 
-16.096962 8.964486 40.392260 -175.974477 1.357006 -160.667923 5.908953 0.789407 -30.452298 -3.810421 3.116042 5.669630 0.000000 0.000000 0.000000 11.921354 6.943784 3.277290 -10.379430 -3.397960 -70.180625 -29.019800 0.523578 7.682110 -42.536098 -4.497150 18.411301 0.000000 -15.480000 0.000000 7.038940 13.181000 23.828199 32.191898 -3.470330 4.468520 45.296799 1.209630 17.917999 0.000000 10.392600 0.000000 -1.053070 -7.167140 6.743730 6.628368 -24.463863 -15.867949 0.000000 0.000000 4.756250 -0.618014 22.698637 -4.763610 0.000000 0.000000 -10.681920 0.641275 31.612144 -16.694255 0.000000 0.000000 4.401630 1.493995 -28.887093 3.156362 0.000000 0.000000 -18.138430 
